# xmcd
#
# Track frame offsets: 
#        150
#        14828
#        28867
#        44741
#        60655
#        72757
#        85299
#        97381
#        110194
#        123773
#        134332
#        148488
#        162701
#        174051
#        189076
#        201973
#        214324
#        226984
#        238828
#        255840
#
# Disc length: 3614 seconds
#
# Revision: 3
# Processed by: cddbd v1.5.2PL0 Copyright (c) Steve Scherf et al.
# Submitted via: ExactAudioCopy v1.0b1
#
DISCID=330e1c14
DTITLE=B.B. King - King Of The Blues [Ace]
DYEAR=1960
DGENRE=Blues
TTITLE0=I've Got A Right To Love My Baby (mono)
TTITLE1=What Way To Go (mono)
TTITLE2=Long Nights (The Feeling They Call The Blues) (mono)
TTITLE3=Feel Like A Million (mono)
TTITLE4=I'll Survive (mono)
TTITLE5=Good Man Gone Bad (mono)
TTITLE6=If I Lost You (mono)
TTITLE7=You're On The Top (mono)
TTITLE8=Partin' Time (mono)
TTITLE9=I'm King (mono)
TTITLE10=Things Are Not The Same (mono)
TTITLE11=Growing Old (stereo)
TTITLE12=That's How Much You Mean To Me (stereo)
TTITLE13=Tell Me Baby (stereo)
TTITLE14=Going Down Slow (mono)
TTITLE15=Whole Lot Of Lovin' (mono)
TTITLE16=When My Heart Beats Like A Hammer (mono)
TTITLE17=I Can't Lose (stereo)
TTITLE18=3 O'Clock Blues (stereo)
TTITLE19=Worried Life (mono)
EXTD=
EXTT0=
EXTT1=
EXTT2=
EXTT3=
EXTT4=
EXTT5=
EXTT6=
EXTT7=
EXTT8=
EXTT9=
EXTT10=
EXTT11=
EXTT12=
EXTT13=
EXTT14=
EXTT15=
EXTT16=
EXTT17=
EXTT18=
EXTT19=
PLAYORDER=
